<svg width="24" height="24" viewBox="0 0 24 24" fill="none" xmlns="http://www.w3.org/2000/svg">
<path fill-rule="evenodd" clip-rule="evenodd" d="M1.72766 1.81828C1.6272 1.41643 1.22 1.17211 0.818154 1.27257C0.416308 1.37303 0.171987 1.78023 0.272448 2.18208L1.32419 6.38905L2.303 10.4731C2.7192 12.2096 3.04679 13.5765 3.43554 14.6384C3.8343 15.7277 4.32331 16.5733 5.10788 17.2218C5.17559 17.2777 5.24457 17.3321 5.31477 17.3849C6.12823 17.9968 7.06454 18.2752 8.21674 18.4091C9.33998 18.5397 10.7456 18.5397 12.5313 18.5396H13.1247C14.6698 18.5397 15.886 18.5397 16.8659 18.4406C17.8694 18.3391 18.6952 18.1285 19.4383 17.6632C19.7908 17.4425 20.1183 17.1842 20.4151 16.8929C21.0408 16.2787 21.438 15.5247 21.7706 14.5724C22.0954 13.6427 22.3788 12.4599 22.7389 10.9575L22.7598 10.8702C22.9769 9.96433 23.1559 9.21757 23.2251 8.61272C23.2968 7.98492 23.2676 7.38716 22.9542 6.84137C22.8201 6.60794 22.6526 6.39545 22.4568 6.2107C21.9991 5.77874 21.4246 5.61094 20.7974 5.53441C20.193 5.46066 19.4252 5.46068 18.4936 5.4607L2.63827 5.4607L1.72766 1.81828ZM9.25006 14.0002C9.25006 13.586 9.58585 13.2502 10.0001 13.2502H16.0001C16.4143 13.2502 16.7501 13.586 16.7501 14.0002C16.7501 14.4144 16.4143 14.7502 16.0001 14.7502H10.0001C9.58585 14.7502 9.25006 14.4144 9.25006 14.0002Z" fill="#FAFAFA"/>
<path d="M9.4211 22.0002C10.0025 22.0002 10.4737 21.5289 10.4737 20.9475C10.4737 20.3662 10.0025 19.8949 9.4211 19.8949C8.83975 19.8949 8.36847 20.3662 8.36847 20.9475C8.36847 21.5289 8.83975 22.0002 9.4211 22.0002Z" fill="#FAFAFA"/>
<path d="M15.7369 22.0002C16.3182 22.0002 16.7895 21.5289 16.7895 20.9475C16.7895 20.3662 16.3182 19.8949 15.7369 19.8949C15.1555 19.8949 14.6843 20.3662 14.6843 20.9475C14.6843 21.5289 15.1555 22.0002 15.7369 22.0002Z" fill="#FAFAFA"/>
</svg>
