<svg width="32" height="32" viewBox="0 0 32 32" fill="none" xmlns="http://www.w3.org/2000/svg">
<g clip-path="url(#clip0_2836_1242)">
<path d="M16 -1C12.8356 -1 9.74206 -0.0616204 7.11088 1.69648C4.4797 3.45458 2.42894 5.95344 1.21794 8.87706C0.00693905 11.8006 -0.309922 15.0178 0.307438 18.1214C0.924798 21.2252 2.44866 24.076 4.6863 26.3138C6.92394 28.5514 9.77486 30.0752 12.8786 30.6926C15.9822 31.31 19.1994 30.993 22.123 29.782C25.0466 28.571 27.5454 26.5204 29.3036 23.8892C31.0616 21.258 32 18.1646 32 15C32 10.7565 30.3142 6.68688 27.3138 3.6863C24.3132 0.6857 20.2434 -1 16 -1ZM23.86 9.96L21.24 22.34C21.04 23.22 20.52 23.42 19.78 23.02L15.78 20.06L13.78 21.92C13.6858 22.043 13.5648 22.143 13.4262 22.2124C13.2876 22.2816 13.135 22.3184 12.98 22.32L13.26 18.32L20.66 11.62C21 11.34 20.66 11.18 20.18 11.46L11.1 17.16L7.1 15.92C6.24 15.66 6.22 15.06 7.28 14.66L22.7 8.66C23.46 8.44 24.1 8.88 23.86 9.96Z" fill="white"/>
</g>
<defs>
<clipPath id="clip0_2836_1242">
<rect width="32" height="32" fill="white"/>
</clipPath>
</defs>
</svg>
